<svg height="166" viewBox="0 0 250 166" width="250" xmlns="http://www.w3.org/2000/svg"><g fill="none" transform="translate(0 20)"><ellipse cx="215.690425" cy="132.657981" fill="#e6e6e6" rx="34.080422" ry="4.697477"/><ellipse cx="34.179861" cy="133.153797" fill="#e6e6e6" rx="34.179861" ry="4.697477"/><path d="m56.9603652 63.0305521.8792356 1.8169111s4.9904728 6.6600963 1.9075679 7.7034909c-3.0829048 1.0433947-4.7187655-6.31671-4.7187655-6.31671l-.8150765-1.0301444z" fill="#ffb8b8"/><path d="m51.2117554 28.6268601.8203227-.3470526s.9707843.3470526.9707843 1.8396404-1.1940713 23.28438-1.1940713 23.28438l2.3881398 11.9407049-3.2836919.5970357-5.0748132-11.0451529z" fill="#575a89"/><path d="m51.2117554 28.6268601.8203227-.3470526s.9707843.3470526.9707843 1.8396404-1.1940713 23.28438-1.1940713 23.28438l6.4181285 10.298859-4.1792469 2.9851755-8.2092299-11.7914468z" fill="#575a89"/><path d="m50.6147197 63.2549122s3.8807305 1.4925878 3.5822112 4.1792497c-.2985192 2.686662-4.1792469 56.1213221-4.1792469 56.1213221l1.1940714 5.970354-11.3436722.298519-.2985192-38.5087766-8.0599774 38.5087766h-11.3436721l8.0599802-67.7635161z" fill="#2f2e41"/><path d="m49.7191676 128.331767 2.6866591 2.686659s6.2688704 1.194068 4.7762826 3.283692c-1.4925878 2.089623-17.0155096-.597033-17.0155096-.597033l.2985192-4.776285z" fill="#2f2e41"/><path d="m30.3155181 128.331767 2.6866591 2.686659s6.2688704 1.194068 4.7762826 3.283692c-1.4925878 2.089623-17.0155096-.597033-17.0155096-.597033l.2985192-4.776285z" fill="#2f2e41"/><circle cx="41.062152" cy="10.715798" fill="#ffb8b8" r="7.164425"/><path d="m45.5399207 14.8949604-.5971121 12.2392412-9.2539638-5.3731597 1.1939412-6.8660815z" fill="#ffb8b8"/><path d="m35.3904304 18.7757644 8.6568516 6.2689695 1.4926387-4.4779162 2.6865799 7.164496-1.4926388 12.8363533z" fill="#cfcce0"/><path d="m35.3903171 17.8802208 9.552568 13.1347679.3459371-10.9724689 2.9377548 2.3154559v2.3881596l4.1792497 3.8807305-1.4925906 14.9258834-.2985164 17.6125424s1.791107 1.4925878 1.1940714 2.3881427c-.5970357.8955549-2.9851784 2.9851699-5.6718375 2.9851699s-19.4036495-2.0896235-19.4036495-3.283692.5970357-16.7169903.5970357-16.7169903v-20.8962401l7.1644252-5.3733183z" fill="#575a89"/><path d="m26.1361835 67.4340317 3.880804 5.6718573 1.4926388-6.5673839-1.7910533-1.1939411z" fill="#ffb8b8"/><path d="m34.0869433 83.5648372h16.570034v.5971744h-16.570034z" fill="#000" opacity=".2" transform="matrix(.34633352 -.93811145 .93811145 .34633352 -50.976108 94.56833)"/><path d="m36.7336467 3.70063137s.8955549-4.47776331 5.9703539-3.58221121l-.5970357.29851642s4.7762826-.59703567 4.1792497 2.08962344c0 0 3.8807276 2.3881427 2.9851755 5.07480181-.5266071 1.55716164-.9259423 3.15450137-1.1940713 4.77628257l-.8955521-.8955521s-.8955521-5.97035391-6.2688732-5.37331823c-4.0299886.44777463-5.6718346 2.35082672-6.0916251 3.72214326-.193279.64479257-.4399712 1.27235137-.7375142 1.87615797l-.3352831.0735334s-1.791107-6.56738956 2.9851756-8.05997733z" fill="#2f2e41"/><path d="m30.6140345 25.3431653-2.7174971-.1261296-.5661976.4246461c-.6498635.6494637-1.2486745 1.348076-1.7911071 2.0896234-.5970328.8955549-8.3584937 22.6873443-8.3584937 22.6873443-.1440302 1.3235347.0618402 2.6616921.5970356 3.8807305.8955521 2.0896234 8.0599774 14.6273669 8.0599774 14.6273669l5.3733182-3.283692-7.1644252-14.6273669 5.0748018-7.1644253z" fill="#575a89"/><path d="m205.561721 119.003114v8.04077h4.824462l.643262-8.04077z" fill="#a0616a"/><path d="m216.979615 119.485561 1.929502 4.502831 3.216308 1.286523.643261-9.005662-2.573046-1.286241z" fill="#a0616a"/><g fill="#2f2e41"><path d="m221.160603 123.345144s-.272809-2.030266-3.031031-1.175945l.45803 6.000325s-2.251379 6.754131.964867 6.11087c3.216246-.643262 5.146005-6.754131 5.146005-6.754131l2.251379-10.29201-5.436739-1.592667z"/><path d="m200.898211 55.1605776s-4.502755 34.092299-2.894629 37.9517865c1.608125 3.8594875 18.493457 28.7854669 18.493457 28.7854669l7.397381-9.64876-16.563704-20.7448326 15.438016-21.2272707 1.2865-12.8650113z"/><path d="m218.587486 67.3822197 4.246036 2.2468856-.064836.6477916-10.452718 52.2641561-8.04077-1.608154 5.306908-36.8261606z"/><path d="m205.079337 124.631645-1.929756 2.894629s-4.181124 7.07575.321631 7.07575 6.432505 0 6.754131-1.608125c.236059-1.095918.558702-2.171377.964892-3.216255l-.321631-4.181126z"/></g><circle cx="217.622724" cy="11.097911" fill="#a0616a" r="7.075756"/><path d="m211.833471 13.3492865s.964876 5.4676303-1.929754 6.4325057c-2.894629.9648754 3.53788 13.8298896 3.53788 13.8298896l7.397395-12.2217611s-1.929751-4.1811296-.643262-6.1108833z" fill="#a0616a"/><path d="m213.441597 28.1440515-1.745901-10.4809258-3.400104 2.1186665-9.00551 5.1460051 3.537868 15.1163901-1.2865 9.3271348s-1.608129 2.8946291-1.286504 4.1811297c.321625 1.2865005-.321631 1.9297508 0 2.251376.321631.3216251 16.402888 2.8946291 21.227271 4.8243799 4.824383 1.9297509 5.467633 2.573004 5.146005.9648754-.321628-1.6081285-3.85949-9.3271291-3.85949-9.3271291l2.894626-12.8650141 3.859504-11.2568856-9.369677-8.6470159z" fill="#575a89"/><path d="m227.271486 42.2955663 2.251376 6.1108805-5.789255 10.6136353-1.889071 1.469278c-.609902.4743667-.877995 1.2668378-.681356 2.0140572l1.283926 4.8789213 3.365165-4.9976359s9.178222-11.0836297 8.856596-13.9782559c-.321625-2.8946263-1.2865-7.3973839-1.2865-7.3973839z" fill="#a0616a"/><path d="m195.430578 37.1495612-1.608126 8.0406313-6.110866 15.1163902s-6.754131 6.4325056-3.53788 7.719009c3.216252 1.2865034 7.075759-6.4325085 7.075759-6.4325085l7.719006-14.473137 2.894629-8.6838845z" fill="#a0616a"/><path d="m225.984983 27.5008012 2.588986-.2324462.948893.8757079s5.467631 12.221761 4.82438 13.5082616c-.64325 1.2865005-7.075756 1.9297536-7.075756 1.9297536l-2.573004-7.7190118z" fill="#575a89"/><path d="m201.541461 25.2494224-1.5956-.6963533-.655779.3747282s-6.432506 12.8650141-4.82438 13.5082644 9.327135 1.6081257 9.327135 1.6081257z" fill="#575a89"/><path d="m208.295583 93.0342582-1.960645 13.6053228-1.825029-2.803228z" fill="#000" opacity=".2"/><path d="m222.221886 6.90747169s.712607 1.87570781-2.595029.91415628c0 0-1.310212.6387769-1.234012-.45142978 0 0-1.806217 1.69964326-2.149821.58009343s-1.284825.27537656-1.284825.27537656l-.71261-1.87570782-.915807 1.03152322-2.938633-.20539638s-.331605-7.32672706 9.6929-5.89571347c10.024504 1.43101359 4.263106 12.60009347 4.263106 12.60009347s.063343-2.0727152-.852466-1.041192c-.91581 1.0315232-1.272803-5.93180351-1.272803-5.93180351z" fill="#2f2e41"/><path d="m59.3443318 64.6741535v30.8837287h129.0104412v-30.8837287zm77.2957392 25.7018969h-69.3157165v-4.352735h69.3157165zm0-8.0836608h-69.3157165v-4.3527407h69.3157165zm43.73468-8.0836608h-113.0503965v-4.3527407h113.0503965z" fill="#387ed1"/><path d="m130.448188 51.0419026h-17.410815v-17.4110985h11.814552v.4147791h-11.400056v16.5818234h16.581823v-8.2910533h.414496z" fill="#3f3d56"/><path d="m121.653143 46.5004672c-.40235-1.1880352-5.447905-5.226478-2.356116-5.9052662l2.535456 3.3807418 11.6569-11.6566959 1.172389 1.1723896z" fill="#387ed1"/></g></svg>